<svg width="30" height="30" viewBox="0 0 30 30" fill="none" xmlns="http://www.w3.org/2000/svg">
<path d="M22.5625 26.6125C22.4469 26.7284 22.3095 26.8203 22.1583 26.883C22.0071 26.9458 21.845 26.9781 21.6812 26.9781C21.5175 26.9781 21.3554 26.9458 21.2042 26.883C21.053 26.8203 20.9156 26.7284 20.8 26.6125L18.15 23.9625C18.0343 23.8468 17.9425 23.7094 17.8798 23.5582C17.8172 23.407 17.785 23.2449 17.785 23.0812C17.785 22.9176 17.8172 22.7555 17.8798 22.6043C17.9425 22.4531 18.0343 22.3157 18.15 22.2C18.3837 21.9663 18.7007 21.835 19.0312 21.835C19.1949 21.835 19.357 21.8672 19.5082 21.9298C19.6594 21.9925 19.7968 22.0843 19.9125 22.2L21.675 23.9625L26.1 19.5375C26.2157 19.4218 26.3531 19.33 26.5043 19.2673C26.6555 19.2047 26.8176 19.1725 26.9812 19.1725C27.1449 19.1725 27.307 19.2047 27.4582 19.2673C27.6094 19.33 27.7468 19.4218 27.8625 19.5375C27.9782 19.6532 28.07 19.7906 28.1327 19.9418C28.1953 20.093 28.2275 20.2551 28.2275 20.4187C28.2275 20.5824 28.1953 20.7445 28.1327 20.8957C28.07 21.0469 27.9782 21.1843 27.8625 21.3L22.5625 26.6125ZM15.1 25H5C3.625 25 2.5 23.875 2.5 22.5V7.5C2.5 6.125 3.625 5 5 5H25C26.375 5 27.5 6.125 27.5 7.5V15.85C26.1669 15.2158 24.6949 14.9295 23.2213 15.0177C21.7477 15.1059 20.3204 15.5658 19.0724 16.3545C17.8245 17.1432 16.7966 18.235 16.0845 19.5281C15.3724 20.8213 14.9993 22.2737 15 23.75C15 24.175 15.0375 24.5875 15.1 25ZM14.3375 15.8375C14.7375 16.0875 15.2625 16.0875 15.6625 15.8375L24.5 10.3125C24.6253 10.2421 24.7351 10.1471 24.8226 10.0331C24.9102 9.91906 24.9737 9.78847 25.0093 9.64921C25.0449 9.50995 25.0519 9.36492 25.0298 9.22288C25.0077 9.08085 24.9571 8.94477 24.8809 8.82288C24.8047 8.70099 24.7046 8.59582 24.5866 8.51374C24.4686 8.43167 24.3352 8.37439 24.1944 8.34537C24.0536 8.31636 23.9084 8.31621 23.7676 8.34494C23.6267 8.37366 23.4932 8.43067 23.375 8.5125L15 13.75L6.625 8.5125C6.50683 8.43067 6.37328 8.37366 6.23244 8.34494C6.0916 8.31621 5.9464 8.31636 5.80562 8.34537C5.66484 8.37439 5.53141 8.43167 5.41341 8.51374C5.29541 8.59582 5.19528 8.70099 5.1191 8.82288C5.04292 8.94477 4.99226 9.08085 4.9702 9.22288C4.94813 9.36492 4.95511 9.50995 4.99072 9.64921C5.02633 9.78847 5.08982 9.91906 5.17736 10.0331C5.2649 10.1471 5.37466 10.2421 5.5 10.3125L14.3375 15.8375Z" fill="#021170"/>
</svg>
