<svg width="30" height="30" viewBox="0 0 30 30" fill="none" xmlns="http://www.w3.org/2000/svg">
<path d="M14.3747 8.74998C15.2035 8.74998 15.9984 9.07922 16.5844 9.66527C17.1705 10.2513 17.4997 11.0462 17.4997 11.875C17.4997 12.7038 17.1705 13.4986 16.5844 14.0847C15.9984 14.6707 15.2035 15 14.3747 15C13.5459 15 12.7511 14.6707 12.165 14.0847C11.579 13.4986 11.2497 12.7038 11.2497 11.875C11.2497 11.0462 11.579 10.2513 12.165 9.66527C12.7511 9.07922 13.5459 8.74998 14.3747 8.74998ZM14.3747 9.99998C13.8774 9.99998 13.4005 10.1975 13.0489 10.5492C12.6973 10.9008 12.4997 11.3777 12.4997 11.875C12.4997 12.3723 12.6973 12.8492 13.0489 13.2008C13.4005 13.5524 13.8774 13.75 14.3747 13.75C14.872 13.75 15.3489 13.5524 15.7006 13.2008C16.0522 12.8492 16.2497 12.3723 16.2497 11.875C16.2497 11.3777 16.0522 10.9008 15.7006 10.5492C15.3489 10.1975 14.872 9.99998 14.3747 9.99998ZM8.49973 15.4462L14.3747 25.1087L20.2497 15.4462C20.8833 14.4037 21.2281 13.2114 21.2487 11.9916C21.2694 10.7719 20.965 9.56858 20.367 8.50528C19.7689 7.44197 18.8987 6.55695 17.8457 5.94104C16.7926 5.32513 15.5947 5.00051 14.3747 5.00051C13.1548 5.00051 11.9568 5.32513 10.9038 5.94104C9.85071 6.55695 8.98051 7.44197 8.38247 8.50528C7.78443 9.56858 7.4801 10.7719 7.50071 11.9916C7.52131 13.2114 7.86612 14.4037 8.49973 15.4462ZM21.3172 16.0962L14.3747 27.515L7.43223 16.0962C6.68363 14.8642 6.27633 13.4551 6.25212 12.0136C6.22792 10.5722 6.58768 9.15025 7.29449 7.89375C8.0013 6.63724 9.0297 5.59143 10.2742 4.86362C11.5186 4.13581 12.9343 3.75223 14.376 3.75223C15.8176 3.75223 17.2333 4.13581 18.4778 4.86362C19.7223 5.59143 20.7507 6.63724 21.4575 7.89375C22.1643 9.15025 22.524 10.5722 22.4998 12.0136C22.4756 13.4551 22.0683 14.8642 21.3197 16.0962H21.3172Z" fill="#021170"/>
</svg>
