<svg width="60" height="60" viewBox="0 0 60 60" fill="none" xmlns="http://www.w3.org/2000/svg">
<path d="M10 32.5V52.5H27.5V32.5H10ZM30 32.5V52.5H47.5V32.5H30ZM50 32.5V55H7.5V32.5H5V17.5H12.5875L12.5 16.25C12.4993 14.3367 13.1258 12.4759 14.2835 10.9525C15.4412 9.42921 17.0663 8.32733 18.91 7.81565C20.7536 7.30397 22.7142 7.41069 24.4914 8.11947C26.2686 8.82825 27.7645 10.1 28.75 11.74C29.7355 10.1 31.2314 8.82825 33.0086 8.11947C34.7858 7.41069 36.7464 7.30397 38.59 7.81565C40.4337 8.32733 42.0588 9.42921 43.2165 10.9525C44.3742 12.4759 45.0007 14.3367 45 16.25L44.9125 17.5H52.5V32.5H50ZM7.5 20V30H27.5V20H7.5ZM50 30V20H30V30H50ZM42.375 17.5L42.5 16.25C42.5 14.5924 41.8415 13.0027 40.6694 11.8306C39.4973 10.6585 37.9076 10 36.25 10C34.5924 10 33.0027 10.6585 31.8306 11.8306C30.6585 13.0027 30 14.5924 30 16.25V17.5H42.375ZM27.5 17.5V16.25C27.5 14.5924 26.8415 13.0027 25.6694 11.8306C24.4973 10.6585 22.9076 10 21.25 10C19.5924 10 18.0027 10.6585 16.8306 11.8306C15.6585 13.0027 15 14.5924 15 16.25L15.125 17.5H27.5Z" fill="white"/>
</svg>
